# AST/ASF file generated using VICON BodyLanguage
# -----------------------------------------------
:version 1.10
:name VICON
:units
  mass 1.0
  length 0.45
  angle deg
:documentation
   .ast/.asf automatically generated from VICON data using
   VICON BodyBuilder and BodyLanguage model FoxedUp or BRILLIANT.MOD
:root
   order TX TY TZ RX RY RZ
   axis XYZ
   position 0 0 0  
   orientation 0 0 0 
:bonedata
  begin
     id 1 
     name lhipjoint
     direction 0.623529 -0.717805 0.309788 
     length 2.23224 
     axis 0 0 0  XYZ
  end
  begin
     id 2 
     name lfemur
     direction 0.34202 -0.939693 0  
     length 7.11402  
     axis 0 0 20  XYZ
    dof rx ry rz
    limits (-160.0 20.0)
           (-70.0 70.0)
           (-60.0 70.0)
  end
  begin
     id 3 
     name ltibia
     direction 0.34202 -0.939693 0   
     length 6.78496   
     axis 0 0 20   XYZ
    dof rx
    limits (-10.0 170.0)
  end
  begin
     id 4 
     name lfoot
     direction 0.125078 -0.343648 0.930732   
     length 1.84054   
     axis -90 7.62852e-016 20   XYZ
    dof rx rz
    limits (-45.0 90.0)
           (-70.0 20.0)
  end
  begin
     id 5 
     name ltoes
     direction 1.53565e-011 -4.21893e-011 1   
     length 0.916474   
     axis -90 7.62852e-016 20   XYZ
    dof rx
    limits (-90.0 20.0)
  end
  begin
     id 6 
     name rhipjoint
     direction -0.564688 -0.757748 0.327026   
     length 2.11457  
     axis 0 0 0  XYZ 
  end
  begin
     id 7 
     name rfemur
     direction -0.34202 -0.939693 0   
     length 7.14609   
     axis 0 0 -20   XYZ
    dof rx ry rz
    limits (-160.0 20.0)
           (-70.0 70.0)
           (-70.0 60.0)
  end
  begin
     id 8 
     name rtibia
     direction -0.34202 -0.939693 0   
     length 6.78101   
     axis 0 0 -20   XYZ
    dof rx
    limits (-10.0 170.0)
 end
 begin
     id 9 
     name rfoot
     direction -0.0992671 -0.272734 0.956955   
     length 1.96168  
     axis -90 -7.62852e-016 -20   XYZ
    dof rx rz
    limits (-45.0 90.0)
           (-20.0 70.0)
  end
  begin
     id 10 
     name rtoes
     direction -1.5356e-011 -4.21891e-011 1   
     length 0.982933   
     axis -90 -7.62852e-016 -20   XYZ
    dof rx
    limits (-90.0 20.0)
  end
  begin
     id 11 
     name lowerback
     direction -0.00596953 0.998668 0.0512524   
     length 1.87557   
     axis 0 0 0   XYZ
    dof rx ry rz
    limits (-20.0 45.0)
           (-30.0 30.0)
           (-30.0 30.0)
  end
  begin
     id 12 
     name upperback
     direction 0.00584879 0.999652 0.0257308   
     length 1.87883   
     axis 0 0 0   XYZ
    dof rx ry rz
    limits (-20.0 45.0)
           (-30.0 30.0)
           (-30.0 30.0)
  end
  begin
     id 13 
     name thorax
     direction 0.010104 0.999947 0.00178881   
     length 1.87779   
     axis 0 0 0   XYZ
    dof rx ry rz
    limits (-20.0 45.0)
           (-30.0 30.0)
           (-30.0 30.0)
  end
  begin
     id 14 
     name lowerneck
     direction 0.0120771 0.995934 -0.0892773   
     length 1.40897   
     axis 0 0 0   XYZ
    dof rx ry rz
    limits (-20.0 45.0)
           (-30.0 30.0)
           (-30.0 30.0)
  end
  begin
     id 15 
     name upperneck
     direction -0.030568 0.999465 -0.0116366   
     length 1.38661   
     axis 0 0 0   XYZ
    dof rx ry rz
    limits (-20.0 45.0)
           (-30.0 30.0)
           (-30.0 30.0)
  end
  begin
     id 16
     name head
     direction -0.0170715 0.999854 -0.00104426  
     length 1.47052  
     axis 0 0 0   XYZ
    dof rx ry rz
    limits (-20.0 45.0)
           (-30.0 30.0)
           (-30.0 30.0)
  end
  begin
     id 17 
     name lclavicle
     direction 0.977763 0.206143 0.038532  
     length 3.02424  
     axis 0 0 0   XYZ
    dof ry rz
    limits (-20.0 10.0)
           (0.0 20.0)
  end
  begin
     id 18 
     name lhumerus
     direction 1 -4.48965e-011 -2.62654e-027   
     length 4.68382   
     axis 180 -30 -90   XYZ
    dof rx ry rz
    limits (-60.0 90.0)
           (-90.0 90.0)
           (-90.0 90.0)
  end
  begin
     id 19
     name lradius
     direction 1 -4.48973e-011 -1.54954e-027   
     length 2.98124   
     axis 180 -30 -90   XYZ
    dof rx
    limits (-10.0 170.0)
  end
  begin
     id 20
     name lwrist
     direction 1 -4.48959e-011 7.20928e-028   
     length 1.49062   
     axis -5.52449e-016 90 90   XYZ
    dof ry
    limits (-180.0 0.0)
 end
  begin
     id 21 
     name lhand
     direction 1 -4.48971e-011 1.44186e-027   
     length 0.707595   
     axis -9.20027e-016 90 90   XYZ
    dof rx rz
    limits (-90.0 90.0)
           (-45.0 45.0)
  end
  begin
     id 22 
     name lfingers
     direction 1 -4.48985e-011 2.88371e-027   
     length 0.570481   
     axis -1.84005e-015 90 90   XYZ
    dof rx
    limits (0.0 90.0)
  end
  begin
     id 23
     name lthumb
     direction 0.707107 -6.34929e-011 0.707107   
     length 0.819101   
     axis -90 45 2.85299e-015   XYZ
    dof rx rz
    limits (-45.0 45.0)
           (-45.0 45.0)
  end
  begin
     id 24 
     name rclavicle
     direction -0.958661 0.284411 -0.00895327   
     length 3.11921  
     axis 0 0 0   XYZ 
    dof ry rz
    limits (-10.0 20.0)
           (-20.0 0.0)
  end
  begin
     id 25 
     name rhumerus
     direction -1 -4.48963e-011 -4.22193e-027  
     length 4.75876   
     axis 180 30 90   XYZ
    dof rx ry rz
    limits (-90.0 60.0)
           (-90.0 90.0)
           (-90.0 90.0)
  end
  begin
     id 26 
     name rradius
     direction -1 -4.48968e-011 -1.07616e-027   
     length 2.93293   
     axis 180 30 90   XYZ
    dof rx
    limits (-10.0 170.0)
  end
  begin
     id 27 
     name rwrist
     direction -1 -4.48965e-011 7.20928e-028   
     length 1.46647   
     axis -5.52449e-016 -90 -90   XYZ
    dof ry
    limits (-180.0 0.0)
  end
  begin
     id 28
     name rhand
     direction -1 -4.48971e-011 1.44186e-027   
     length 0.831748   
     axis -9.20027e-016 -90 -90   XYZ
    dof rx rz
    limits (-90.0 90.0)
           (-45.0 45.0)
  end
  begin
     id 29
     name rfingers
     direction -1 -4.48961e-011 2.88371e-027   
     length 0.670577   
     axis -1.84005e-015 -90 -90   XYZ
    dof rx
    limits (0.0 90.0)
  end
  begin
     id 30
     name rthumb
     direction -0.707107 -6.34929e-011 0.707107   
     length 0.962818   
     axis -90 -45 -2.85299e-015   XYZ
    dof rx rz
    limits (-45.0 45.0)
           (-45.0 45.0)
  end
:hierarchy
  begin
    root lhipjoint rhipjoint lowerback
    lhipjoint lfemur
    lfemur ltibia
    ltibia lfoot
    lfoot ltoes
    rhipjoint rfemur
    rfemur rtibia
    rtibia rfoot
    rfoot rtoes
    lowerback upperback
    upperback thorax
    thorax lowerneck lclavicle rclavicle
    lowerneck upperneck
    upperneck head
    lclavicle lhumerus
    lhumerus lradius
    lradius lwrist
    lwrist lhand lthumb
    lhand lfingers
    rclavicle rhumerus
    rhumerus rradius
    rradius rwrist
    rwrist rhand rthumb
    rhand rfingers
  end

#!OML:ASF E:\id_vita\Project 1\Capture day 1\Session 1\Female.ASF
:FULLY-SPECIFIED
:DEGREES
36
root -20.9701 16.4286 2.75244 -167.055 7.10196 -179.518
lowerback -13.7529 -0.754666 -4.40087
upperback -4.26561 0.0348582 1.02162
thorax 3.21621 0.227612 3.57737
lowerneck 11.3077 1.63806 -4.12714
upperneck -16.323 3.05353 6.48011
head -7.00853 1.32919 2.47625
rclavicle -6.33781e-015 -1.04362e-015
rhumerus -35.8882 6.13941 -97.848
rradius 39.1567
rwrist 5.23675
rhand -1.95967 3.94411
rfingers 7.12502
rthumb 23.7121 -24.6132
lclavicle -6.33781e-015 -1.04362e-015
lhumerus -31.6378 -12.7018 99.8512
lradius 22.9388
lwrist -30.4607
lhand 30.5005 31.7668
lfingers 7.12502
lthumb 54.1564 50.4985
rfemur -15.5485 11.1043 16.8131
rtibia 21.9093
rfoot -7.24598 -25.3209
rtoes -8.78147
lfemur -21.9345 -13.4885 -15.0221
ltibia 26.872
lfoot -21.743 5.46964
ltoes -1.93493
37
root -20.9687 16.4273 2.7519 -167.187 7.21251 -179.502
lowerback -13.6692 -0.697948 -4.37103
upperback -4.18869 0.0918944 0.982853
thorax 3.24637 0.247918 3.52833
lowerneck 11.2325 1.58019 -4.15553
upperneck -16.4693 3.01331 6.57747
head -7.04165 1.30998 2.51742
rclavicle 5.5287e-015 -7.45443e-016
rhumerus -36.0191 6.22645 -98.0418
rradius 40.0695
rwrist 4.60391
rhand -2.26083 3.76906
rfingers 7.12502
rthumb 23.4232 -24.8254
lclavicle 5.5287e-015 -7.45443e-016
lhumerus -31.5992 -12.9166 99.8607
lradius 22.9591
lwrist -30.2436
lhand 30.4885 32.0396
lfingers 7.12502
lthumb 54.1456 50.7787
rfemur -15.4059 11.0749 16.856
rtibia 21.9005
rfoot -7.20281 -25.214
rtoes -9.58563
lfemur -21.7552 -13.5562 -15.0519
ltibia 26.8853
lfoot -21.6782 5.64337
ltoes -1.77567
38
root -20.962 16.4283 2.7527 -167.079 7.31653 -179.399
lowerback -13.8782 -0.632113 -4.30277
upperback -4.14454 0.181264 0.953805
thorax 3.3982 0.287624 3.47615
lowerneck 11.1511 1.53191 -4.12328
upperneck -16.5545 2.98819 6.65557
head -7.05379 1.29551 2.54038
rclavicle 7.70291e-015 -1.37161e-014
rhumerus -36.0214 6.28366 -98.1766
rradius 40.8007
rwrist 4.2606
rhand -2.58368 3.56164
rfingers 7.12502
rthumb 23.1135 -25.0719
lclavicle 7.70291e-015 -1.37161e-014
lhumerus -31.5229 -13.1407 99.8227
lradius 22.9951
lwrist -30.148
lhand 30.4029 32.0012
lfingers 7.12502
lthumb 54.0689 50.7926
rfemur -15.5017 11.1702 16.9556
rtibia 21.8675
rfoot -7.27741 -25.1778
rtoes -9.14976
lfemur -21.8563 -13.3024 -14.9428
ltibia 26.9206
lfoot -21.7594 5.60619
ltoes -1.03615
39
root -20.9609 16.4285 2.75349 -167.189 7.31043 -179.361
lowerback -13.6404 -0.623428 -4.33979
upperback -4.19633 0.183782 1.01037
thorax 3.2142 0.294438 3.55403
lowerneck 11.1416 1.52744 -4.11994
upperneck -16.5704 2.97043 6.58672
head -7.05514 1.29234 2.51924
rclavicle 4.79257e-015 6.95746e-016
rhumerus -36.1644 6.17974 -98.115
rradius 41.4871
rwrist 4.55495
rhand -2.40824 3.38413
rfingers 7.12502
rthumb 23.2818 -25.2283
lclavicle 4.79257e-015 6.95746e-016
lhumerus -31.6449 -13.1079 99.9679
lradius 23.0827
lwrist -30.059
lhand 30.2328 32.1289
lfingers 7.12502
lthumb 53.9162 51.0234
rfemur -15.369 11.2037 17.0254
rtibia 21.8546
rfoot -7.36457 -25.2143
rtoes -8.92719
lfemur -21.7438 -13.4069 -14.9015
ltibia 26.9436
lfoot -21.8155 5.60528
ltoes -0.143833
40
root -20.9603 16.4296 2.75328 -167.188 7.33838 -179.366
lowerback -13.6319 -0.646788 -4.41085
upperback -4.19749 0.159384 1.06873
thorax 3.20999 0.282565 3.65188
lowerneck 11.129 1.50579 -4.08439
upperneck -16.6942 2.93418 6.44767
head -7.08823 1.2859 2.47214
rclavicle -9.89264e-015 -1.44119e-015
rhumerus -36.3029 6.48571 -98.2967
rradius 42.2503
rwrist 3.68573
rhand -2.86629 2.96742
rfingers 7.12502
rthumb 22.8423 -25.6999
lclavicle -9.89264e-015 -1.44119e-015
lhumerus -31.4853 -12.5808 99.8149
lradius 23.078
lwrist -29.8546
lhand 30.8046 32.326
lfingers 7.12502
lthumb 54.4288 50.8699
rfemur -15.3793 11.2355 17.0178
rtibia 21.8569
rfoot -7.34149 -25.2876
rtoes -9.55735
lfemur -21.7378 -13.5629 -14.8704
ltibia 26.9483
lfoot -21.7226 5.68464
ltoes -0.746449
41
root -20.9621 16.4281 2.75107 -167.093 7.39257 -179.417
lowerback -13.8058 -0.691948 -4.42305
upperback -4.18715 0.112748 1.06659
thorax 3.31953 0.25794 3.65109
lowerneck 11.1284 1.49765 -3.98774
upperneck -16.8154 2.91686 6.25945
head -7.12236 1.28837 2.39687
rclavicle -2.24611e-014 -7.50412e-015
rhumerus -36.3914 6.68096 -98.4588
rradius 42.9938
rwrist 3.23292
rhand -3.02729 2.74617
rfingers 7.12502
rthumb 22.6878 -25.9401
lclavicle -2.24611e-014 -7.50412e-015
lhumerus -31.2208 -11.2798 99.0555
lradius 22.7845
lwrist -33.1031
lhand 32.2138 29.259
lfingers 7.12502
lthumb 55.6854 46.89
rfemur -15.4878 11.2443 16.91
rtibia 21.8286
rfoot -7.35631 -25.2835
rtoes -9.77763
lfemur -21.8491 -13.6432 -14.9114
ltibia 26.9677
lfoot -21.6021 5.9446
ltoes -2.10528
42
root -20.9589 16.4248 2.75347 -167.033 7.40798 -179.443
lowerback -13.8737 -0.727537 -4.44976
upperback -4.19128 0.0754781 1.0467
thorax 3.35553 0.239585 3.63988
lowerneck 11.1341 1.52372 -3.93247
upperneck -16.9083 2.9601 6.18643
head -7.15405 1.31328 2.35999
rclavicle -7.15935e-015 -5.26779e-015
rhumerus -36.4314 6.70817 -98.6104
rradius 43.6547
rwrist 2.8908
rhand -3.04193 2.92542
rfingers 7.12502
rthumb 22.6737 -25.7626
lclavicle -7.15935e-015 -5.26779e-015
lhumerus -31.1745 -11.0963 98.8888
lradius 22.7272
lwrist -33.503
lhand 32.2941 28.8497
lfingers 7.12502
lthumb 55.7568 46.4264
rfemur -15.5378 11.3312 16.859
rtibia 21.7847
rfoot -7.32715 -25.2667
rtoes -9.42997
lfemur -21.946 -13.3838 -14.9594
ltibia 27.0009
lfoot -21.6947 5.84858
ltoes -2.76134
43
root -20.9553 16.4237 2.75373 -167.02 7.43946 -179.363
lowerback -13.848 -0.69993 -4.42858
upperback -4.2193 0.108895 1.08334
thorax 3.30895 0.259223 3.67155
lowerneck 11.1121 1.53748 -3.96446
upperneck -16.9362 2.98361 6.21008
head -7.16121 1.32619 2.37094
rclavicle -3.72255e-015 6.5102e-015
rhumerus -36.4322 6.69418 -98.6428
rradius 44.1206
rwrist 2.69164
rhand -2.87576 3.44363
rfingers 7.12502
rthumb 22.8332 -25.2248
lclavicle -3.72255e-015 6.5102e-015
lhumerus -31.5433 -12.5336 99.7758
lradius 22.9226
lwrist -30.7546
lhand 30.2361 31.4679
lfingers 7.12502
lthumb 53.9191 50.3605
rfemur -15.5368 11.4171 16.9467
rtibia 21.7701
rfoot -7.25331 -25.2672
rtoes -9.31879
lfemur -21.9518 -13.5105 -14.8284
ltibia 27.0205
lfoot -21.7335 5.90736
ltoes -2.32247
44
root -20.9556 16.4249 2.75579 -167.034 7.48638 -179.316
lowerback -13.7603 -0.679472 -4.43364
upperback -4.24746 0.131197 1.13438
thorax 3.22945 0.273449 3.73074
lowerneck 11.1085 1.55767 -3.97854
upperneck -16.9932 3.00821 6.17103
head -7.17998 1.34319 2.35843
rclavicle -1.12453e-014 -9.64106e-015
rhumerus -36.1986 7.10291 -98.722
rradius 44.0611
rwrist 2.32271
rhand -3.76497 3.84857
rfingers 7.12502
rthumb 21.9796 -24.9226
lclavicle -1.12453e-014 -9.64106e-015
lhumerus -31.5505 -12.4243 99.826
lradius 22.8766
lwrist -30.8511
lhand 30.2584 31.4545
lfingers 7.12502
lthumb 53.9392 50.3336
rfemur -15.5293 11.2033 17.0245
rtibia 21.755
rfoot -7.11122 -25.0772
rtoes -10.0926
lfemur -21.9335 -13.6642 -14.7499
ltibia 27.0462
lfoot -21.7579 5.92539
ltoes -0.958737
